<?xml version="1.0" standalone="no"?>
<!DOCTYPE svg PUBLIC "-//W3C//DTD SVG 20010904//EN"
 "http://www.w3.org/TR/2001/REC-SVG-20010904/DTD/svg10.dtd">
<svg version="1.0" xmlns="http://www.w3.org/2000/svg"
 width="500.000000pt" height="500.000000pt" viewBox="0 0 500.000000 500.000000"
 preserveAspectRatio="xMidYMid meet">

<g transform="translate(0.000000,500.000000) scale(0.100000,-0.100000)"
fill="#000000" stroke="none">
<path d="M1695 4553 l-920 -444 -224 -982 c-124 -540 -226 -991 -228 -1002 -3
-14 177 -246 634 -820 l638 -800 1025 -3 1025 -2 635 797 c349 438 636 804
638 814 4 21 -444 1990 -455 1999 -9 8 -1821 881 -1838 885 -5 2 -424 -197
-930 -442z m1843 -593 c11 -17 8 -46 -13 -173 -29 -177 -55 -398 -55 -478 l0
-56 -47 -6 c-27 -3 -104 -9 -173 -13 l-125 -6 0 128 c0 155 -13 191 -78 223
-55 26 -186 41 -370 41 -179 0 -211 -9 -226 -67 -12 -49 -37 -640 -27 -650 13
-14 533 -7 664 9 168 19 164 25 133 -165 -12 -78 -25 -150 -28 -161 -5 -18
-17 -18 -267 -11 -171 4 -306 3 -391 -5 -71 -6 -130 -12 -132 -13 -1 -2 -3
-151 -5 -332 -4 -463 -22 -440 327 -432 233 5 296 16 370 67 58 40 99 124 124
253 11 54 21 100 23 102 2 2 71 10 153 18 147 14 150 14 168 -6 9 -11 15 -27
13 -36 -12 -38 -50 -282 -75 -479 -23 -174 -31 -217 -47 -231 -18 -17 -34 -18
-209 -10 -648 26 -1302 21 -1564 -12 -41 -5 -75 -8 -77 -6 -1 1 23 245 25 254
1 1 24 6 51 12 131 28 196 92 214 211 3 19 6 404 8 855 2 754 1 823 -15 852
-23 42 -70 57 -156 49 -64 -6 -68 -6 -77 16 -7 16 -5 57 5 132 l16 109 630 -2
c585 -2 912 6 1102 28 109 13 117 13 131 -9z"/>
</g>
</svg>
